<mxfile host="app.diagrams.net" modified="2024-04-12T07:45:28.437Z" agent="Mozilla/5.0 (Windows NT 10.0; Win64; x64) AppleWebKit/537.36 (KHTML, like Gecko) Chrome/123.0.0.0 Safari/537.36" etag="iPePO_xZPQzQIXmsMUo5" version="24.2.3" type="device">
  <diagram name="Stránka-1" id="L7gT9186aJFYfiG4sBui">
    <mxGraphModel dx="2314" dy="66" grid="1" gridSize="10" guides="1" tooltips="1" connect="1" arrows="1" fold="1" page="1" pageScale="1" pageWidth="850" pageHeight="1100" math="0" shadow="0">
      <root>
        <mxCell id="0" />
        <mxCell id="1" parent="0" />
        <mxCell id="wal2iCFqHS-6s-cBKjhp-62" style="edgeStyle=orthogonalEdgeStyle;rounded=0;orthogonalLoop=1;jettySize=auto;html=1;entryX=1;entryY=0.5;entryDx=0;entryDy=0;" edge="1" parent="1" source="wal2iCFqHS-6s-cBKjhp-3" target="wal2iCFqHS-6s-cBKjhp-25">
          <mxGeometry relative="1" as="geometry" />
        </mxCell>
        <mxCell id="wal2iCFqHS-6s-cBKjhp-3" value="&lt;font style=&quot;font-size: 16px;&quot; face=&quot;Verdana&quot;&gt;&lt;b style=&quot;&quot;&gt;Nastav pozici ruky za hráče&lt;/b&gt;&lt;/font&gt;" style="rounded=0;whiteSpace=wrap;html=1;" vertex="1" parent="1">
          <mxGeometry x="429.69" y="1585.11" width="120" height="60" as="geometry" />
        </mxCell>
        <mxCell id="wal2iCFqHS-6s-cBKjhp-46" style="edgeStyle=orthogonalEdgeStyle;rounded=0;orthogonalLoop=1;jettySize=auto;html=1;entryX=1;entryY=0.5;entryDx=0;entryDy=0;exitX=0.5;exitY=1;exitDx=0;exitDy=0;" edge="1" parent="1" source="wal2iCFqHS-6s-cBKjhp-6" target="wal2iCFqHS-6s-cBKjhp-9">
          <mxGeometry relative="1" as="geometry">
            <Array as="points">
              <mxPoint x="297" y="1435" />
            </Array>
          </mxGeometry>
        </mxCell>
        <mxCell id="wal2iCFqHS-6s-cBKjhp-47" style="edgeStyle=orthogonalEdgeStyle;rounded=0;orthogonalLoop=1;jettySize=auto;html=1;entryX=0;entryY=0.5;entryDx=0;entryDy=0;" edge="1" parent="1" source="wal2iCFqHS-6s-cBKjhp-6" target="wal2iCFqHS-6s-cBKjhp-11">
          <mxGeometry relative="1" as="geometry" />
        </mxCell>
        <mxCell id="wal2iCFqHS-6s-cBKjhp-6" value="&lt;font style=&quot;font-size: 14px;&quot; face=&quot;Verdana&quot;&gt;&lt;b style=&quot;&quot;&gt;Byla nastavena &lt;br&gt;počáteční pozice&lt;br&gt;ruky ?&lt;/b&gt;&lt;/font&gt;" style="rhombus;whiteSpace=wrap;html=1;" vertex="1" parent="1">
          <mxGeometry x="199.68999999999994" y="1265" width="195.38" height="120.23" as="geometry" />
        </mxCell>
        <mxCell id="wal2iCFqHS-6s-cBKjhp-7" value="&lt;font style=&quot;font-size: 14px;&quot;&gt;&lt;b&gt;NE&lt;/b&gt;&lt;/font&gt;" style="text;html=1;align=center;verticalAlign=middle;whiteSpace=wrap;rounded=0;" vertex="1" parent="1">
          <mxGeometry x="289.69" y="1385.2299999999998" width="60" height="30" as="geometry" />
        </mxCell>
        <mxCell id="wal2iCFqHS-6s-cBKjhp-8" value="&lt;font style=&quot;font-size: 14px;&quot;&gt;&lt;b&gt;ANO&lt;/b&gt;&lt;/font&gt;" style="text;html=1;align=center;verticalAlign=middle;whiteSpace=wrap;rounded=0;" vertex="1" parent="1">
          <mxGeometry x="379.69" y="1295.11" width="60" height="30" as="geometry" />
        </mxCell>
        <mxCell id="wal2iCFqHS-6s-cBKjhp-9" value="&lt;font style=&quot;font-size: 16px;&quot; face=&quot;Verdana&quot;&gt;&lt;b style=&quot;&quot;&gt;Nastav počáteční pozici&lt;/b&gt;&lt;/font&gt;" style="rounded=0;whiteSpace=wrap;html=1;" vertex="1" parent="1">
          <mxGeometry x="22" y="1405.11" width="120" height="60" as="geometry" />
        </mxCell>
        <mxCell id="wal2iCFqHS-6s-cBKjhp-48" style="edgeStyle=orthogonalEdgeStyle;rounded=0;orthogonalLoop=1;jettySize=auto;html=1;entryX=0;entryY=0.5;entryDx=0;entryDy=0;" edge="1" parent="1" source="wal2iCFqHS-6s-cBKjhp-11">
          <mxGeometry relative="1" as="geometry">
            <mxPoint x="619.69" y="1325.11" as="targetPoint" />
          </mxGeometry>
        </mxCell>
        <mxCell id="wal2iCFqHS-6s-cBKjhp-11" value="&lt;font style=&quot;font-size: 18px;&quot; face=&quot;Verdana&quot;&gt;&lt;b style=&quot;&quot;&gt;t = 0&lt;/b&gt;&lt;/font&gt;" style="rounded=0;whiteSpace=wrap;html=1;" vertex="1" parent="1">
          <mxGeometry x="459.69" y="1295.11" width="120" height="60" as="geometry" />
        </mxCell>
        <mxCell id="wal2iCFqHS-6s-cBKjhp-50" style="edgeStyle=orthogonalEdgeStyle;rounded=0;orthogonalLoop=1;jettySize=auto;html=1;entryX=0.5;entryY=0;entryDx=0;entryDy=0;" edge="1" parent="1" source="wal2iCFqHS-6s-cBKjhp-14" target="wal2iCFqHS-6s-cBKjhp-16">
          <mxGeometry relative="1" as="geometry" />
        </mxCell>
        <mxCell id="wal2iCFqHS-6s-cBKjhp-55" style="edgeStyle=orthogonalEdgeStyle;rounded=0;orthogonalLoop=1;jettySize=auto;html=1;entryX=0.5;entryY=0;entryDx=0;entryDy=0;" edge="1" parent="1" source="wal2iCFqHS-6s-cBKjhp-14" target="wal2iCFqHS-6s-cBKjhp-21">
          <mxGeometry relative="1" as="geometry">
            <Array as="points">
              <mxPoint x="800" y="1325" />
              <mxPoint x="800" y="1515" />
              <mxPoint x="704" y="1515" />
            </Array>
          </mxGeometry>
        </mxCell>
        <mxCell id="wal2iCFqHS-6s-cBKjhp-14" value="&lt;font style=&quot;font-size: 16px;&quot; face=&quot;Verdana&quot;&gt;&lt;b style=&quot;&quot;&gt;t &amp;gt;= rand(1,5)&lt;/b&gt;&lt;/font&gt;" style="rhombus;whiteSpace=wrap;html=1;" vertex="1" parent="1">
          <mxGeometry x="619.69" y="1275.11" width="162.5" height="100" as="geometry" />
        </mxCell>
        <mxCell id="wal2iCFqHS-6s-cBKjhp-52" style="edgeStyle=orthogonalEdgeStyle;rounded=0;orthogonalLoop=1;jettySize=auto;html=1;entryX=1;entryY=0.5;entryDx=0;entryDy=0;" edge="1" parent="1" source="wal2iCFqHS-6s-cBKjhp-16" target="wal2iCFqHS-6s-cBKjhp-51">
          <mxGeometry relative="1" as="geometry" />
        </mxCell>
        <mxCell id="wal2iCFqHS-6s-cBKjhp-16" value="&lt;font style=&quot;font-size: 18px;&quot; face=&quot;Verdana&quot;&gt;&lt;b style=&quot;&quot;&gt;t += 1&lt;/b&gt;&lt;/font&gt;" style="rounded=0;whiteSpace=wrap;html=1;" vertex="1" parent="1">
          <mxGeometry x="640.94" y="1425.11" width="120" height="60" as="geometry" />
        </mxCell>
        <mxCell id="wal2iCFqHS-6s-cBKjhp-17" value="&lt;font style=&quot;font-size: 14px;&quot;&gt;&lt;b&gt;NE&lt;/b&gt;&lt;/font&gt;" style="text;html=1;align=center;verticalAlign=middle;whiteSpace=wrap;rounded=0;" vertex="1" parent="1">
          <mxGeometry x="689.69" y="1375.11" width="60" height="30" as="geometry" />
        </mxCell>
        <mxCell id="wal2iCFqHS-6s-cBKjhp-18" value="&lt;font style=&quot;font-size: 14px;&quot;&gt;&lt;b&gt;ANO&lt;/b&gt;&lt;/font&gt;" style="text;html=1;align=center;verticalAlign=middle;whiteSpace=wrap;rounded=0;" vertex="1" parent="1">
          <mxGeometry x="767.7900000000001" y="1295.11" width="60" height="30" as="geometry" />
        </mxCell>
        <mxCell id="wal2iCFqHS-6s-cBKjhp-56" style="edgeStyle=orthogonalEdgeStyle;rounded=0;orthogonalLoop=1;jettySize=auto;html=1;entryX=1;entryY=0.5;entryDx=0;entryDy=0;" edge="1" parent="1" source="wal2iCFqHS-6s-cBKjhp-21" target="wal2iCFqHS-6s-cBKjhp-3">
          <mxGeometry relative="1" as="geometry" />
        </mxCell>
        <mxCell id="wal2iCFqHS-6s-cBKjhp-64" style="edgeStyle=orthogonalEdgeStyle;rounded=0;orthogonalLoop=1;jettySize=auto;html=1;entryX=0.5;entryY=0;entryDx=0;entryDy=0;" edge="1" parent="1" source="wal2iCFqHS-6s-cBKjhp-21" target="wal2iCFqHS-6s-cBKjhp-27">
          <mxGeometry relative="1" as="geometry" />
        </mxCell>
        <mxCell id="wal2iCFqHS-6s-cBKjhp-21" value="&lt;font style=&quot;font-size: 16px;&quot; face=&quot;Verdana&quot;&gt;&lt;b style=&quot;&quot;&gt;Pohybuje se &lt;br&gt;ruka ?&lt;/b&gt;&lt;/font&gt;" style="rhombus;whiteSpace=wrap;html=1;" vertex="1" parent="1">
          <mxGeometry x="614.22" y="1560.11" width="178.75" height="110" as="geometry" />
        </mxCell>
        <mxCell id="wal2iCFqHS-6s-cBKjhp-22" value="&lt;font style=&quot;font-size: 14px;&quot;&gt;&lt;b&gt;NE&lt;/b&gt;&lt;/font&gt;" style="text;html=1;align=center;verticalAlign=middle;whiteSpace=wrap;rounded=0;" vertex="1" parent="1">
          <mxGeometry x="579.69" y="1585.11" width="60" height="30" as="geometry" />
        </mxCell>
        <mxCell id="wal2iCFqHS-6s-cBKjhp-23" value="&lt;font style=&quot;font-size: 14px;&quot;&gt;&lt;b&gt;ANO&lt;/b&gt;&lt;/font&gt;" style="text;html=1;align=center;verticalAlign=middle;whiteSpace=wrap;rounded=0;" vertex="1" parent="1">
          <mxGeometry x="700.94" y="1665.11" width="60" height="30" as="geometry" />
        </mxCell>
        <mxCell id="wal2iCFqHS-6s-cBKjhp-65" style="edgeStyle=orthogonalEdgeStyle;rounded=0;orthogonalLoop=1;jettySize=auto;html=1;entryX=0.5;entryY=0;entryDx=0;entryDy=0;" edge="1" parent="1" source="wal2iCFqHS-6s-cBKjhp-25" target="wal2iCFqHS-6s-cBKjhp-27">
          <mxGeometry relative="1" as="geometry">
            <Array as="points">
              <mxPoint x="309.69" y="1685.11" />
              <mxPoint x="703.69" y="1685.11" />
            </Array>
          </mxGeometry>
        </mxCell>
        <mxCell id="wal2iCFqHS-6s-cBKjhp-25" value="&lt;font style=&quot;font-size: 16px;&quot; face=&quot;Verdana&quot;&gt;&lt;b style=&quot;&quot;&gt;Začni pohyb ruky k postavě&lt;/b&gt;&lt;/font&gt;" style="rounded=0;whiteSpace=wrap;html=1;" vertex="1" parent="1">
          <mxGeometry x="249.69" y="1585.11" width="120" height="60" as="geometry" />
        </mxCell>
        <mxCell id="wal2iCFqHS-6s-cBKjhp-59" style="edgeStyle=orthogonalEdgeStyle;rounded=0;orthogonalLoop=1;jettySize=auto;html=1;entryX=1;entryY=0.5;entryDx=0;entryDy=0;" edge="1" parent="1" source="wal2iCFqHS-6s-cBKjhp-27" target="wal2iCFqHS-6s-cBKjhp-34">
          <mxGeometry relative="1" as="geometry" />
        </mxCell>
        <mxCell id="wal2iCFqHS-6s-cBKjhp-60" style="edgeStyle=orthogonalEdgeStyle;rounded=0;orthogonalLoop=1;jettySize=auto;html=1;entryX=0.5;entryY=0;entryDx=0;entryDy=0;" edge="1" parent="1" source="wal2iCFqHS-6s-cBKjhp-27" target="wal2iCFqHS-6s-cBKjhp-31">
          <mxGeometry relative="1" as="geometry" />
        </mxCell>
        <mxCell id="wal2iCFqHS-6s-cBKjhp-27" value="&lt;font style=&quot;font-size: 16px;&quot; face=&quot;Verdana&quot;&gt;&lt;b style=&quot;&quot;&gt;Otočila &lt;br&gt;se postava ?&lt;/b&gt;&lt;/font&gt;" style="rhombus;whiteSpace=wrap;html=1;align=center;" vertex="1" parent="1">
          <mxGeometry x="611.57" y="1705.2299999999998" width="184.05" height="113.26" as="geometry" />
        </mxCell>
        <mxCell id="wal2iCFqHS-6s-cBKjhp-28" value="&lt;font style=&quot;font-size: 14px;&quot;&gt;&lt;b&gt;ANO&lt;/b&gt;&lt;/font&gt;" style="text;html=1;align=center;verticalAlign=middle;whiteSpace=wrap;rounded=0;" vertex="1" parent="1">
          <mxGeometry x="699.69" y="1805.11" width="60" height="30" as="geometry" />
        </mxCell>
        <mxCell id="wal2iCFqHS-6s-cBKjhp-29" value="&lt;font style=&quot;font-size: 14px;&quot;&gt;&lt;b&gt;NE&lt;/b&gt;&lt;/font&gt;" style="text;html=1;align=center;verticalAlign=middle;whiteSpace=wrap;rounded=0;" vertex="1" parent="1">
          <mxGeometry x="359.69" y="1730.11" width="60" height="30" as="geometry" />
        </mxCell>
        <mxCell id="wal2iCFqHS-6s-cBKjhp-31" value="&lt;font style=&quot;font-size: 16px;&quot; face=&quot;Verdana&quot;&gt;&lt;b style=&quot;&quot;&gt;Vymaž pozici ruky&lt;/b&gt;&lt;/font&gt;" style="rounded=0;whiteSpace=wrap;html=1;" vertex="1" parent="1">
          <mxGeometry x="636.5200000000001" y="1839.9999999999998" width="134.15" height="70" as="geometry" />
        </mxCell>
        <mxCell id="wal2iCFqHS-6s-cBKjhp-61" style="edgeStyle=orthogonalEdgeStyle;rounded=0;orthogonalLoop=1;jettySize=auto;html=1;entryX=0.5;entryY=0;entryDx=0;entryDy=0;" edge="1" parent="1" source="wal2iCFqHS-6s-cBKjhp-34" target="wal2iCFqHS-6s-cBKjhp-38">
          <mxGeometry relative="1" as="geometry" />
        </mxCell>
        <mxCell id="wal2iCFqHS-6s-cBKjhp-68" style="edgeStyle=orthogonalEdgeStyle;rounded=0;orthogonalLoop=1;jettySize=auto;html=1;entryX=0.5;entryY=0;entryDx=0;entryDy=0;" edge="1" parent="1" source="wal2iCFqHS-6s-cBKjhp-34" target="wal2iCFqHS-6s-cBKjhp-21">
          <mxGeometry relative="1" as="geometry">
            <Array as="points">
              <mxPoint x="219.69" y="1762.11" />
              <mxPoint x="219.69" y="1540.11" />
              <mxPoint x="703.69" y="1540.11" />
            </Array>
          </mxGeometry>
        </mxCell>
        <mxCell id="wal2iCFqHS-6s-cBKjhp-34" value="&lt;font style=&quot;font-size: 16px;&quot; face=&quot;Verdana&quot;&gt;&lt;b style=&quot;&quot;&gt;Dotkla se ruka&lt;br&gt;postavy ?&lt;/b&gt;&lt;/font&gt;" style="rhombus;whiteSpace=wrap;html=1;" vertex="1" parent="1">
          <mxGeometry x="397.19" y="1705.6999999999998" width="182.5" height="112.31" as="geometry" />
        </mxCell>
        <mxCell id="wal2iCFqHS-6s-cBKjhp-35" value="&lt;font style=&quot;font-size: 14px;&quot;&gt;&lt;b&gt;NE&lt;/b&gt;&lt;/font&gt;" style="text;html=1;align=center;verticalAlign=middle;whiteSpace=wrap;rounded=0;" vertex="1" parent="1">
          <mxGeometry x="579.69" y="1730.11" width="60" height="30" as="geometry" />
        </mxCell>
        <mxCell id="wal2iCFqHS-6s-cBKjhp-36" value="&lt;font style=&quot;font-size: 14px;&quot;&gt;&lt;b&gt;ANO&lt;/b&gt;&lt;/font&gt;" style="text;html=1;align=center;verticalAlign=middle;whiteSpace=wrap;rounded=0;" vertex="1" parent="1">
          <mxGeometry x="479.69" y="1811.85" width="60" height="30" as="geometry" />
        </mxCell>
        <mxCell id="wal2iCFqHS-6s-cBKjhp-38" value="&lt;font style=&quot;font-size: 18px;&quot; face=&quot;Verdana&quot;&gt;&lt;b style=&quot;&quot;&gt;Odeber část baterky&lt;/b&gt;&lt;/font&gt;" style="rounded=0;whiteSpace=wrap;html=1;" vertex="1" parent="1">
          <mxGeometry x="419.39" y="1841.85" width="138.1" height="69.05" as="geometry" />
        </mxCell>
        <mxCell id="wal2iCFqHS-6s-cBKjhp-44" style="edgeStyle=orthogonalEdgeStyle;rounded=0;orthogonalLoop=1;jettySize=auto;html=1;entryX=0;entryY=0.5;entryDx=0;entryDy=0;" edge="1" parent="1" source="wal2iCFqHS-6s-cBKjhp-39" target="wal2iCFqHS-6s-cBKjhp-6">
          <mxGeometry relative="1" as="geometry" />
        </mxCell>
        <mxCell id="wal2iCFqHS-6s-cBKjhp-39" value="&lt;font face=&quot;Verdana&quot; style=&quot;font-size: 24px;&quot;&gt;&lt;b&gt;Start&lt;/b&gt;&lt;/font&gt;" style="strokeWidth=2;html=1;shape=mxgraph.flowchart.terminator;whiteSpace=wrap;fillColor=#0DFF15;" vertex="1" parent="1">
          <mxGeometry x="32" y="1295.11" width="100" height="60" as="geometry" />
        </mxCell>
        <mxCell id="wal2iCFqHS-6s-cBKjhp-41" value="&lt;font face=&quot;Verdana&quot; style=&quot;font-size: 24px;&quot;&gt;&lt;b&gt;Konec&lt;/b&gt;&lt;/font&gt;" style="strokeWidth=2;html=1;shape=mxgraph.flowchart.terminator;whiteSpace=wrap;fillColor=#EA6B66;" vertex="1" parent="1">
          <mxGeometry x="32" y="1845.0000000000002" width="100" height="60" as="geometry" />
        </mxCell>
        <mxCell id="wal2iCFqHS-6s-cBKjhp-45" style="edgeStyle=orthogonalEdgeStyle;rounded=0;orthogonalLoop=1;jettySize=auto;html=1;entryX=0.5;entryY=1;entryDx=0;entryDy=0;entryPerimeter=0;" edge="1" parent="1" source="wal2iCFqHS-6s-cBKjhp-9" target="wal2iCFqHS-6s-cBKjhp-39">
          <mxGeometry relative="1" as="geometry" />
        </mxCell>
        <mxCell id="wal2iCFqHS-6s-cBKjhp-53" style="edgeStyle=orthogonalEdgeStyle;rounded=0;orthogonalLoop=1;jettySize=auto;html=1;entryX=0;entryY=0.5;entryDx=0;entryDy=0;" edge="1" parent="1" source="wal2iCFqHS-6s-cBKjhp-51" target="wal2iCFqHS-6s-cBKjhp-14">
          <mxGeometry relative="1" as="geometry">
            <Array as="points">
              <mxPoint x="539.69" y="1400.11" />
              <mxPoint x="599.69" y="1400.11" />
              <mxPoint x="599.69" y="1325.11" />
            </Array>
          </mxGeometry>
        </mxCell>
        <mxCell id="wal2iCFqHS-6s-cBKjhp-51" value="&lt;font style=&quot;font-size: 18px;&quot; face=&quot;Verdana&quot;&gt;&lt;b style=&quot;&quot;&gt;Wait();&lt;/b&gt;&lt;/font&gt;" style="rounded=0;whiteSpace=wrap;html=1;" vertex="1" parent="1">
          <mxGeometry x="479.69" y="1425.11" width="120" height="60" as="geometry" />
        </mxCell>
        <mxCell id="wal2iCFqHS-6s-cBKjhp-71" style="edgeStyle=orthogonalEdgeStyle;rounded=0;orthogonalLoop=1;jettySize=auto;html=1;entryX=1;entryY=0.5;entryDx=0;entryDy=0;entryPerimeter=0;" edge="1" parent="1" source="wal2iCFqHS-6s-cBKjhp-38" target="wal2iCFqHS-6s-cBKjhp-41">
          <mxGeometry relative="1" as="geometry" />
        </mxCell>
        <mxCell id="wal2iCFqHS-6s-cBKjhp-73" style="edgeStyle=orthogonalEdgeStyle;rounded=0;orthogonalLoop=1;jettySize=auto;html=1;entryX=1;entryY=0.5;entryDx=0;entryDy=0;entryPerimeter=0;" edge="1" parent="1" source="wal2iCFqHS-6s-cBKjhp-31" target="wal2iCFqHS-6s-cBKjhp-41">
          <mxGeometry relative="1" as="geometry">
            <Array as="points">
              <mxPoint x="704" y="1920" />
              <mxPoint x="210" y="1920" />
              <mxPoint x="210" y="1876" />
            </Array>
          </mxGeometry>
        </mxCell>
      </root>
    </mxGraphModel>
  </diagram>
</mxfile>
